# xmcd
#
# Track frame offsets:
#	151
#	20884
#	38089
#	52662
#	66189
#	79940
#	89721
#	102722
#	119025
#	132250
#	147795
#	163654
#	176429
#	190028
#
# Disc length: 2759 seconds
#
# Revision: 1
# Processed by: cddbd v1.5.2PL0 Copyright (c) Steve Scherf et al.
# Submitted via: audiograbber 1.83.01
#
DISCID=c70ac50e
DTITLE=Sherry Robinson - Sherry Robinson And Freinds
DYEAR=1998
DGENRE=Country
TTITLE0=Southern Justice
TTITLE1=Why Can´t I
TTITLE2=Thanks For The Good Times
TTITLE3=I Still Feel I´m Down On My Luck
TTITLE4=Sitting Here Waiting On Time
TTITLE5=A Diamond In The Rough
TTITLE6=Burning Love
TTITLE7=Oh Mather Where Are You Now
TTITLE8=Warm Country Ways
TTITLE9=My Journey To Your Heart
TTITLE10=Time That You Knew
TTITLE11=Good As Dold
TTITLE12=This Old Heart Sure Feels Lonely Tonight
TTITLE13=For A Love To Last
EXTD=
EXTT0=
EXTT1=
EXTT2=
EXTT3=
EXTT4=
EXTT5=
EXTT6=
EXTT7=
EXTT8=
EXTT9=
EXTT10=
EXTT11=
EXTT12=
EXTT13=
PLAYORDER=
